<svg xmlns="http://www.w3.org/2000/svg" width="23" height="28" viewBox="0 0 23 28"><g><g><path d="M11.735 6.542c1.511.117 3.051-.765 3.992-1.898.939-1.136 1.575-2.71 1.402-4.284-1.354.057-2.994.899-3.965 2.031-.873 1.006-1.634 2.611-1.43 4.15zm10.994 13.493c-.04-.018-3.577-1.366-3.612-5.423-.034-3.396 2.78-5.026 2.905-5.108-1.581-2.304-4.044-2.62-4.921-2.656-2.096-.211-4.09 1.228-5.154 1.228-1.062 0-2.704-1.199-4.443-1.167-2.284.034-4.39 1.324-5.566 3.362-2.375 4.105-.61 10.187 1.704 13.515 1.132 1.627 2.479 3.46 4.25 3.393 1.704-.068 2.349-1.098 4.41-1.098 2.06 0 2.639 1.098 4.444 1.064 1.834-.034 2.996-1.659 4.119-3.294 1.299-1.89 1.832-3.72 1.864-3.816z"/></g></g></svg>