<svg xmlns="http://www.w3.org/2000/svg" width="42" height="39" viewBox="0 0 42 39"><g><g><g><path fill="none" stroke="#d4d4d4" stroke-miterlimit="20" d="M1.5 5.55a5 5 0 0 1 5-5h29.6a5 5 0 0 1 5 5v27.4a5 5 0 0 1-5 5H6.5a5 5 0 0 1-5-5z"/></g><g><g><path fill="#fff" d="M23.22 10.158h-1.963V7.634H8.255v23.07h13.002v-1.846h1.963V31.9a2.2 2.2 0 0 1-2.2 2.2H7.82a2.2 2.2 0 0 1-2.2-2.2V6.6a2.2 2.2 0 0 1 2.2-2.2h13.2a2.2 2.2 0 0 1 2.2 2.2z"/></g><g><g><path fill="none" stroke="#fff" stroke-miterlimit="20" stroke-width="1.2" d="M10.02 21.597c1.315-.26 2.24-1.19 2.24-2.658 0-1.469-.9-2.363-2.021-2.659"/></g><g><path fill="none" stroke="#fff" stroke-miterlimit="20" stroke-width="1.2" d="M11.94 23.491c1.787-.456 3.338-2.034 3.338-4.55 0-2.517-1.325-4.119-3.113-4.551"/></g><g><path fill="none" stroke="#fff" stroke-miterlimit="20" stroke-width="1.2" d="M14.33 25.78c2.089-1.498 3.88-3.092 3.88-6.87 0-3.777-1.418-5.663-3.88-6.81"/></g></g><g><g><path fill="none" stroke="#fff" stroke-miterlimit="20" stroke-width="1.2" d="M29.057 27.383a8.467 8.467 0 1 0 0-16.933 8.467 8.467 0 0 0 0 16.933z"/></g><g transform="rotate(-50 27.53 18.785)"><path fill="#fff" d="M27.18 17.113v3.741h.7v-3.72l-.383-.424z"/><path fill="none" stroke="#feffff" stroke-miterlimit="20" d="M27.18 17.113v3.741h.7v0-3.72 0l-.383-.424v0z"/></g><g transform="rotate(37 30.63 17.9)"><path fill="#fff" d="M30.978 15.432l-.096 5.47-.6-.082v-5.365l.379-.565z"/><path fill="none" stroke="#feffff" stroke-miterlimit="20" d="M30.978 15.432v0l-.096 5.47v0l-.6-.082v0-5.365 0l.379-.565v0z"/></g></g></g></g></g></svg>