<svg xmlns="http://www.w3.org/2000/svg" width="42" height="39" viewBox="0 0 42 39"><g><g><g><path fill="none" stroke="#fff" stroke-miterlimit="20" stroke-width="1.1" d="M1 6.06A5.5 5.5 0 0 1 6.5.56h29a5.5 5.5 0 0 1 5.5 5.5v26.886a5.5 5.5 0 0 1-5.5 5.5h-29a5.5 5.5 0 0 1-5.5-5.5z"/></g><g><path fill="#fff" d="M5.6 25.67V13.23h1.707l2.283 6.587h.035l2.264-6.587h1.725v12.44h-1.777v-7.565h-.035l-1.76 5.346h-.888l-1.742-5.346h-.035v7.565z"/><path fill="none" stroke="#feffff" stroke-miterlimit="20" stroke-width=".55" d="M5.6 25.67v0-12.44 0h1.707v0l2.283 6.587v0h.035v0l2.264-6.587v0h1.725v12.44h-1.777v0-7.565 0h-.035v0l-1.76 5.346v0h-.888v0l-1.742-5.346v0h-.035v7.565z"/></g><g><path fill="#fff" d="M21.91 13.23v9.645c0 .407-.073.783-.218 1.126a2.956 2.956 0 0 1-1.542 1.546c-.349.152-.72.228-1.115.228s-.764-.076-1.107-.227a2.986 2.986 0 0 1-.914-.63 2.995 2.995 0 0 1-.628-.917 2.77 2.77 0 0 1-.226-1.126V13.23h1.777v9.47c0 .442.105.769.314.978.209.21.47.315.784.315.313 0 .575-.105.784-.315.209-.21.313-.536.313-.978v-9.47z"/><path fill="none" stroke="#feffff" stroke-miterlimit="20" stroke-width=".55" d="M21.91 13.23v9.645c0 .407-.073.783-.218 1.126a2.956 2.956 0 0 1-1.542 1.546c-.349.152-.72.228-1.115.228s-.764-.076-1.107-.227a2.986 2.986 0 0 1-.914-.63 2.995 2.995 0 0 1-.628-.917 2.77 2.77 0 0 1-.226-1.126V13.23v0h1.777v9.47c0 .442.105.769.314.978.209.21.47.315.784.315.313 0 .575-.105.784-.315.209-.21.313-.536.313-.978v-9.47 0z"/></g><g><path fill="#fff" d="M25.616 25.67V14.907H23.56V13.23h5.889v1.677h-2.056V25.67z"/><path fill="none" stroke="#feffff" stroke-miterlimit="20" stroke-width=".55" d="M25.616 25.67v0-10.763 0H23.56v0-1.677 0h5.889v1.677h-2.056V25.67z"/></g><g><path fill="#fff" d="M31.1 25.67V13.23h5.296v1.677h-3.519v3.652h3.066v1.677h-3.066v3.652h3.52v1.782z"/><path fill="none" stroke="#feffff" stroke-miterlimit="20" stroke-width=".55" d="M31.1 25.67v0-12.44 0h5.296v1.677h-3.519v3.652h3.066v1.677h-3.066v3.652h3.52v1.782z"/></g></g></g></svg>