<svg xmlns="http://www.w3.org/2000/svg" width="41" height="38" viewBox="0 0 41 38"><g><g><g><g><g><path fill="#fff" d="M10.21 11.8a8 8 0 0 1 8-8h4.583a8 8 0 0 1 8 8v14.4a8 8 0 0 1-8 8H18.21a8 8 0 0 1-8-8z"/></g><g><path fill="#232323" d="M20.264 28.748v-8.914l4.637 4.263zm0-20.028l4.637 4.65-4.637 4.263zm.233 10.014l5.434-4.993a.49.49 0 0 0 .016-.702l-5.824-5.837a.486.486 0 0 0-.83.345v10.08l-5.01-4.603a.485.485 0 1 0-.656.718l5.434 4.992-5.434 4.991a.488.488 0 0 0-.03.688c.183.2.49.211.686.03l5.01-4.603V29.92a.486.486 0 0 0 .83.343l5.824-5.836a.487.487 0 0 0-.016-.703z"/><path fill="none" stroke="#232323" stroke-miterlimit="20" d="M20.264 28.748v-8.914l4.637 4.263zm0-20.028l4.637 4.65-4.637 4.263zm.233 10.014l5.434-4.993a.49.49 0 0 0 .016-.702l-5.824-5.837a.486.486 0 0 0-.83.345v10.08l-5.01-4.603a.485.485 0 1 0-.656.718l5.434 4.992-5.434 4.991a.488.488 0 0 0-.03.688c.183.2.49.211.686.03l5.01-4.603V29.92a.486.486 0 0 0 .83.343l5.824-5.836a.487.487 0 0 0-.016-.703z"/></g></g></g><g><path fill="none" stroke="#fff" stroke-miterlimit="20" d="M1 5.54a5 5 0 0 1 5-5h29a5 5 0 0 1 5 5v26.914a5 5 0 0 1-5 5H6a5 5 0 0 1-5-5z"/></g></g></g></svg>