<svg xmlns="http://www.w3.org/2000/svg" width="41" height="49" viewBox="0 0 41 49"><g><g><g><path fill="none" stroke="#fff" stroke-miterlimit="20" stroke-width="1.1" d="M.63 6.53a5.5 5.5 0 0 1 5.5-5.5h28.6a5.5 5.5 0 0 1 5.5 5.5v26.4a5.5 5.5 0 0 1-5.5 5.5H6.13a5.5 5.5 0 0 1-5.5-5.5z"/></g><g><path fill="#fff" d="M30.216 45.13h.82c.09 0 .261-.029.516-.086a.515.515 0 0 0 .316-.198.582.582 0 0 0 .123-.365c0-.203-.065-.36-.194-.468-.129-.11-.37-.164-.726-.164h-.855zm-1.955 3.747v-6.3h3.244c.602 0 1.062.052 1.38.155.317.103.574.294.769.574.194.279.292.62.292 1.02 0 .35-.075.651-.224.905a1.747 1.747 0 0 1-.614.616c-.166.1-.394.184-.683.25.232.077.4.154.507.232.071.051.175.161.311.33.136.17.227.3.273.391l.941 1.827h-2.2l-1.04-1.925c-.131-.25-.249-.411-.352-.486a.817.817 0 0 0-.477-.146h-.172v2.557zm-7.212-6.3h1.946v2.205h2.127v-2.205h1.955v6.3h-1.955v-2.548h-2.127v2.548H21.05zm-5.818 3.764v-1.98l-1.685 1.98zm.006 1.358h-3.194v-1.44l3.194-3.789h1.528v3.871h.792V47.7h-.792v1.178h-1.528zm-3.626 1.178H6.36c.06-.519.243-1.007.548-1.463.305-.457.877-.997 1.716-1.618.513-.381.841-.67.984-.868.144-.198.215-.385.215-.563a.657.657 0 0 0-.212-.492.742.742 0 0 0-.535-.204.746.746 0 0 0-.548.21c-.142.14-.237.389-.286.744l-1.753-.142c.069-.493.195-.877.378-1.154.183-.276.442-.488.776-.636.333-.147.795-.221 1.385-.221.616 0 1.095.07 1.438.21.342.14.611.356.807.647.197.291.295.617.295.978 0 .384-.113.75-.337 1.1-.225.35-.634.733-1.227 1.151-.353.244-.588.414-.707.512a6.474 6.474 0 0 0-.419.382h2.733z"/></g><g><g><g><path fill="#fff" d="M7.07 15.158l2.854-.05c.547 5.025 4.803 8.937 9.974 8.937 5.289 0 9.622-4.094 10.005-9.285l2.854-.05c-.363 6.788-5.981 12.18-12.86 12.18-6.725 0-12.247-5.156-12.827-11.732z"/></g><g><path fill="#fff" d="M28.09 14.717h6.11l-3.055-3.127z"/><path fill="none" stroke="#fff" stroke-miterlimit="20" stroke-width="1.1" d="M28.09 14.717v0h6.11v0l-3.055-3.127v0z"/></g></g><g><g><g><text dominant-baseline="text-before-edge" style="font-kerning:normal" font-family="ArialHebrewScholar-Bold" font-size="9.9" transform="translate(3 26)"><tspan style="font-kerning:normal">1/1</tspan></text></g></g><g><g><text dominant-baseline="text-before-edge" style="font-kerning:normal" font-family="ArialHebrewScholar-Bold" font-size="9.9" transform="translate(15 26)"><tspan style="font-kerning:normal">0</tspan></text></g></g></g><g><path fill="#fff" d="M35.825 32.72l1.077.341c-.165.602-.44 1.049-.824 1.34-.384.293-.871.439-1.462.439-.73 0-1.332-.25-1.802-.75s-.706-1.184-.706-2.051c0-.918.237-1.63.71-2.138.473-.507 1.095-.761 1.866-.761.673 0 1.22.2 1.64.598.25.235.438.574.563 1.015l-1.1.263a1.169 1.169 0 0 0-.407-.677 1.166 1.166 0 0 0-.753-.248c-.408 0-.739.147-.993.44-.254.293-.38.768-.38 1.425 0 .697.124 1.193.375 1.489.25.296.575.444.976.444.295 0 .55-.094.762-.282.213-.188.365-.484.458-.888zm-8.542 2.036v-5.522h4.08v.934h-2.97v1.224h2.763v.93h-2.762v1.503h3.074v.93zm-5.303-1.804l1.081-.105c.065.364.197.63.396.801.2.17.468.256.805.256.358 0 .628-.076.81-.228.18-.152.271-.329.271-.532a.502.502 0 0 0-.114-.333c-.076-.091-.21-.17-.4-.238-.13-.045-.426-.126-.89-.241-.595-.148-1.013-.33-1.253-.545a1.435 1.435 0 0 1-.507-1.11c0-.28.08-.543.238-.787.16-.244.388-.43.687-.558.3-.128.66-.192 1.083-.192.691 0 1.21.152 1.56.455.35.303.532.708.55 1.214l-1.111.05c-.048-.284-.15-.488-.306-.612-.157-.124-.391-.186-.704-.186-.323 0-.576.067-.758.2a.402.402 0 0 0-.177.342c0 .13.055.241.165.334.14.118.481.24 1.022.369.54.127.94.26 1.199.396.259.137.462.324.608.56.146.237.22.53.22.878a1.625 1.625 0 0 1-1.006 1.502c-.32.135-.72.202-1.198.202-.696 0-1.23-.161-1.603-.484-.373-.322-.595-.791-.668-1.408z"/><path fill="none" stroke="#fffffe" stroke-miterlimit="20" stroke-width=".5" d="M35.825 32.72l1.077.341c-.165.602-.44 1.049-.824 1.34-.384.293-.871.439-1.462.439-.73 0-1.332-.25-1.802-.75s-.706-1.184-.706-2.051c0-.918.237-1.63.71-2.138.473-.507 1.095-.761 1.866-.761.673 0 1.22.2 1.64.598.25.235.438.574.563 1.015l-1.1.263a1.169 1.169 0 0 0-.407-.677 1.166 1.166 0 0 0-.753-.248c-.408 0-.739.147-.993.44-.254.293-.38.768-.38 1.425 0 .697.124 1.193.375 1.489.25.296.575.444.976.444.295 0 .55-.094.762-.282.213-.188.365-.484.458-.888zm-8.542 2.036v-5.522h4.08v.934h-2.97v1.224h2.763v.93h-2.762v1.503h3.074v.93zm-5.303-1.804l1.081-.105c.065.364.197.63.396.801.2.17.468.256.805.256.358 0 .628-.076.81-.228.18-.152.271-.329.271-.532a.502.502 0 0 0-.114-.333c-.076-.091-.21-.17-.4-.238-.13-.045-.426-.126-.89-.241-.595-.148-1.013-.33-1.253-.545a1.435 1.435 0 0 1-.507-1.11c0-.28.08-.543.238-.787.16-.244.388-.43.687-.558.3-.128.66-.192 1.083-.192.691 0 1.21.152 1.56.455.35.303.532.708.55 1.214l-1.111.05c-.048-.284-.15-.488-.306-.612-.157-.124-.391-.186-.704-.186-.323 0-.576.067-.758.2a.402.402 0 0 0-.177.342c0 .13.055.241.165.334.14.118.481.24 1.022.369.54.127.94.26 1.199.396.259.137.462.324.608.56.146.237.22.53.22.878a1.625 1.625 0 0 1-1.006 1.502c-.32.135-.72.202-1.198.202-.696 0-1.23-.161-1.603-.484-.373-.322-.595-.791-.668-1.408z"/></g></g></g><g transform="rotate(-50 17.5 14)"><path fill="#fff" d="M17.052 10.993v6.524h.846V11.03l-.463-.74z"/><path fill="none" stroke="#feffff" stroke-miterlimit="20" stroke-width="1.21" d="M17.052 10.993v6.524h.846v0-6.487 0l-.463-.74v0z"/></g><g transform="rotate(37 23 12.5)"><path fill="#fff" d="M23.476 7.92l-.117 9.586-.725-.142V7.96l.458-.99z"/><path fill="none" stroke="#feffff" stroke-miterlimit="20" stroke-width="1.21" d="M23.476 7.92v0l-.117 9.586v0l-.725-.142v0V7.96v0l.458-.99v0z"/></g></g></svg>