<svg xmlns="http://www.w3.org/2000/svg" width="42" height="39" viewBox="0 0 42 39"><g><g><g><g><path fill="#fff" d="M28.24 23.37h2.411a1.452 1.452 0 0 1 1.033.42c.13.129.23.284.302.463.072.18.108.375.108.584 0 .214-.038.41-.115.588a1.35 1.35 0 0 1-.315.454 1.477 1.477 0 0 1-1.013.4H28.24zm5.27.422a2.699 2.699 0 0 0-.591-.894 2.991 2.991 0 0 0-.96-.642 3.26 3.26 0 0 0-1.302-.246H26.64v9.527h1.6v-3.906h2.416c.244 0 .452.035.624.106.172.07.31.161.414.273.104.111.18.238.227.379.047.14.071.282.071.423v1.448c0 .077.003.166.01.266s.02.208.04.321c.021.114.053.23.096.349.043.118.098.232.166.341h1.75a4.282 4.282 0 0 1-.342-.717 1.834 1.834 0 0 1-.126-.608v-1.38c0-.19-.023-.383-.068-.576a2.103 2.103 0 0 0-.21-.547 1.825 1.825 0 0 0-.366-.46 1.533 1.533 0 0 0-.536-.315c.438-.269.765-.586.98-.953.215-.366.322-.759.322-1.178 0-.341-.066-.678-.2-1.01zm-11.118 3.606h-2.405l1.206-3.387zm-2.107-5.388l-3.455 9.527h1.653c.162-.46.33-.924.505-1.393.173-.469.342-.933.504-1.393h3.4l1.017 2.786h1.673l-3.455-9.527zm-9.506 5.15h1.89c.32 0 .61.042.867.126.257.084.475.197.654.338.178.141.315.307.41.498.094.192.142.392.142.601 0 .255-.052.473-.156.653-.104.18-.238.327-.403.444-.165.116-.35.201-.556.256-.205.054-.41.082-.613.082H10.78zm0-3.79h2.174c.23 0 .432.026.603.081.172.055.313.132.424.232.11.1.193.218.247.352.054.134.081.283.081.447 0 .178-.037.347-.112.51-.074.16-.18.302-.315.422a1.53 1.53 0 0 1-.484.287c-.187.07-.392.106-.613.106h-2.005zM9.18 31.536h4.234c.384 0 .754-.073 1.11-.218.358-.146.673-.343.946-.591.273-.248.491-.54.654-.878a2.45 2.45 0 0 0 .243-1.079c0-.237-.03-.469-.091-.696a2.314 2.314 0 0 0-.285-.646 2.448 2.448 0 0 0-.497-.56 2.91 2.91 0 0 0-.739-.44c.361-.273.631-.582.81-.926.178-.343.267-.716.267-1.116a2.21 2.21 0 0 0-.748-1.67 2.697 2.697 0 0 0-.888-.516 3.458 3.458 0 0 0-1.189-.191H9.18z"/><path fill="none" stroke="#fff" stroke-miterlimit="20" stroke-width=".63" d="M28.24 23.37h2.411a1.452 1.452 0 0 1 1.033.42c.13.129.23.284.302.463.072.18.108.375.108.584 0 .214-.038.41-.115.588a1.35 1.35 0 0 1-.315.454 1.477 1.477 0 0 1-1.013.4H28.24zm5.27.422a2.699 2.699 0 0 0-.591-.894 2.991 2.991 0 0 0-.96-.642 3.26 3.26 0 0 0-1.302-.246H26.64v9.527h1.6v-3.906h2.416c.244 0 .452.035.624.106.172.07.31.161.414.273.104.111.18.238.227.379.047.14.071.282.071.423v1.448c0 .077.003.166.01.266s.02.208.04.321c.021.114.053.23.096.349.043.118.098.232.166.341h1.75a4.282 4.282 0 0 1-.342-.717 1.834 1.834 0 0 1-.126-.608v-1.38c0-.19-.023-.383-.068-.576a2.103 2.103 0 0 0-.21-.547 1.825 1.825 0 0 0-.366-.46 1.533 1.533 0 0 0-.536-.315c.438-.269.765-.586.98-.953.215-.366.322-.759.322-1.178 0-.341-.066-.678-.2-1.01zm-11.118 3.606h-2.405l1.206-3.387zm-2.107-5.388l-3.455 9.527h1.653c.162-.46.33-.924.505-1.393.173-.469.342-.933.504-1.393h3.4l1.017 2.786h1.673l-3.455-9.527zm-9.506 5.15h1.89c.32 0 .61.042.867.126.257.084.475.197.654.338.178.141.315.307.41.498.094.192.142.392.142.601 0 .255-.052.473-.156.653-.104.18-.238.327-.403.444-.165.116-.35.201-.556.256-.205.054-.41.082-.613.082H10.78zm0-3.79h2.174c.23 0 .432.026.603.081.172.055.313.132.424.232.11.1.193.218.247.352.054.134.081.283.081.447 0 .178-.037.347-.112.51-.074.16-.18.302-.315.422a1.53 1.53 0 0 1-.484.287c-.187.07-.392.106-.613.106h-2.005zM9.18 31.536h4.234c.384 0 .754-.073 1.11-.218.358-.146.673-.343.946-.591.273-.248.491-.54.654-.878a2.45 2.45 0 0 0 .243-1.079c0-.237-.03-.469-.091-.696a2.314 2.314 0 0 0-.285-.646 2.448 2.448 0 0 0-.497-.56 2.91 2.91 0 0 0-.739-.44c.361-.273.631-.582.81-.926.178-.343.267-.716.267-1.116a2.21 2.21 0 0 0-.748-1.67 2.697 2.697 0 0 0-.888-.516 3.458 3.458 0 0 0-1.189-.191H9.18z"/></g><g><path fill="#fff" d="M27.298 7.644c-.658 0-1.117.306-1.376.918-.259.612-.389 1.685-.389 3.219 0 1.546.136 2.62.407 3.223.27.604.72.905 1.35.905.623 0 1.074-.296 1.354-.887s.419-1.634.419-3.127c0-1.64-.137-2.758-.41-3.355-.274-.598-.726-.896-1.355-.896zm-.035 10.35c-1.46 0-2.594-.584-3.405-1.75-.811-1.165-1.217-2.638-1.217-4.42 0-1.745.396-3.214 1.186-4.406.79-1.192 1.942-1.788 3.454-1.788 1.5 0 2.65.596 3.453 1.788.803 1.192 1.204 2.65 1.204 4.372 0 1.763-.403 3.238-1.208 4.424-.805 1.186-1.96 1.78-3.467 1.78zm-6.622-2.575l-.2 2.39H11.51V15.48c.29-.223.77-.571 1.439-1.046 1.634-1.171 2.823-2.136 3.567-2.895.744-.758 1.116-1.454 1.116-2.087 0-.462-.148-.845-.445-1.146-.296-.302-.694-.453-1.194-.453-1.163 0-1.838.765-2.024 2.293l-2.459-.553c.552-2.642 2.084-3.963 4.596-3.963 1.407 0 2.487.372 3.24 1.116.753.744 1.13 1.631 1.13 2.662 0 1.067-.395 2.018-1.182 2.856-.788.838-2.237 1.89-4.348 3.155z"/><path fill="none" stroke="#fff" stroke-miterlimit="20" stroke-width=".55" d="M27.298 7.644c-.658 0-1.117.306-1.376.918-.259.612-.389 1.685-.389 3.219 0 1.546.136 2.62.407 3.223.27.604.72.905 1.35.905.623 0 1.074-.296 1.354-.887s.419-1.634.419-3.127c0-1.64-.137-2.758-.41-3.355-.274-.598-.726-.896-1.355-.896zm-.035 10.35c-1.46 0-2.594-.584-3.405-1.75-.811-1.165-1.217-2.638-1.217-4.42 0-1.745.396-3.214 1.186-4.406.79-1.192 1.942-1.788 3.454-1.788 1.5 0 2.65.596 3.453 1.788.803 1.192 1.204 2.65 1.204 4.372 0 1.763-.403 3.238-1.208 4.424-.805 1.186-1.96 1.78-3.467 1.78zm-6.622-2.575l-.2 2.39H11.51V15.48c.29-.223.77-.571 1.439-1.046 1.634-1.171 2.823-2.136 3.567-2.895.744-.758 1.116-1.454 1.116-2.087 0-.462-.148-.845-.445-1.146-.296-.302-.694-.453-1.194-.453-1.163 0-1.838.765-2.024 2.293l-2.459-.553c.552-2.642 2.084-3.963 4.596-3.963 1.407 0 2.487.372 3.24 1.116.753.744 1.13 1.631 1.13 2.662 0 1.067-.395 2.018-1.182 2.856-.788.838-2.237 1.89-4.348 3.155z"/></g></g><g><g><path fill="none" stroke="#fff" stroke-miterlimit="20" stroke-width="1.1" d="M1.11 6.06a5.5 5.5 0 0 1 5.5-5.5H35.4a5.5 5.5 0 0 1 5.5 5.5v26.886a5.5 5.5 0 0 1-5.5 5.5H6.61a5.5 5.5 0 0 1-5.5-5.5z"/></g></g></g></g></svg>