<svg xmlns="http://www.w3.org/2000/svg" width="41" height="39" viewBox="0 0 41 39"><g><g><g><g><g><path fill="#fff" d="M30.836 28.704h2.65v-4.597zm6.359-6.9V33.1h-2.708v-2.134H29.02v-1.88l4.35-7.282zm-9.59 8.806v2.49H18.55v-.31l2.86-2.688c1.027-1.072 1.8-2.026 2.32-2.862.406-.632.609-1.219.609-1.761 0-.474-.113-.835-.339-1.084-.203-.226-.48-.339-.83-.339-.417 0-.744.153-.981.458-.248.316-.384.779-.406 1.388h-3.03c.011-1.264.429-2.308 1.253-3.133.812-.813 1.878-1.219 3.199-1.219 1.342 0 2.403.39 3.182 1.169.733.733 1.1 1.66 1.1 2.777 0 1.197-.559 2.314-1.676 3.353l-1.896 1.761z"/></g><g><path fill="#fff" d="M3 5.5v29.657L37.2 3.3h-32A2.2 2.2 0 0 0 3 5.5z"/></g><g><path fill="#232323" d="M19.298 14.49v2.161h-7.87v-.23l2.486-2.373c.893-.932 1.564-1.76 2.015-2.486.353-.55.53-1.059.53-1.53 0-.411-.098-.725-.294-.941-.177-.196-.417-.294-.721-.294-.363 0-.647.132-.853.397-.216.275-.333.677-.353 1.206h-2.633c.01-1.098.373-2.005 1.089-2.721.706-.706 1.632-1.059 2.78-1.059 1.166 0 2.088.338 2.765 1.015.637.637.956 1.441.956 2.412 0 1.04-.486 2.01-1.456 2.912l-1.648 1.53zM7.018 16.65v-5.923H5.62V7.084h3.942v9.567z"/><path fill="none" stroke="#232323" stroke-miterlimit="20" stroke-width="1.1" d="M19.298 14.49v2.161h-7.87v-.23l2.486-2.373c.893-.932 1.564-1.76 2.015-2.486.353-.55.53-1.059.53-1.53 0-.411-.098-.725-.294-.941-.177-.196-.417-.294-.721-.294-.363 0-.647.132-.853.397-.216.275-.333.677-.353 1.206h-2.633c.01-1.098.373-2.005 1.089-2.721.706-.706 1.632-1.059 2.78-1.059 1.166 0 2.088.338 2.765 1.015.637.637.956 1.441.956 2.412 0 1.04-.486 2.01-1.456 2.912l-1.648 1.53zM7.018 16.65v-5.923H5.62V7.084h3.942v9.567z"/></g></g><g><path fill="none" stroke="#f8f8f8" stroke-miterlimit="20" stroke-width="1.1" d="M.8 6.05A5.5 5.5 0 0 1 6.3.55h28.6a5.5 5.5 0 0 1 5.5 5.5v26.4a5.5 5.5 0 0 1-5.5 5.5H6.3a5.5 5.5 0 0 1-5.5-5.5z"/></g></g></g></g></svg>