<svg xmlns="http://www.w3.org/2000/svg" width="42" height="39" viewBox="0 0 42 39"><g><g><g><g><path fill="#fff" d="M21.207 11.303c0-.767.619-1.39 1.381-1.39.763 0 1.382.623 1.382 1.39 0 .767-.619 1.389-1.382 1.389a1.385 1.385 0 0 1-1.38-1.39zm5.716-2.477c0-.767.619-1.389 1.382-1.389.762 0 1.38.622 1.38 1.39 0 .767-.618 1.388-1.38 1.388a1.385 1.385 0 0 1-1.382-1.389zm5.28-2.424c0-.767.62-1.389 1.382-1.389.763 0 1.381.622 1.381 1.39 0 .767-.618 1.389-1.381 1.389a1.385 1.385 0 0 1-1.381-1.39zm-24.489 5.42c-2.898 1.359-4.151 4.823-2.8 7.737 1.351 2.914 4.796 4.175 7.694 2.816l18.856-8.842 6.629-2.496c.425-.16.71-.565.719-1.022l.092-4.631c.006-.3-.11-.591-.319-.805l-1.429-1.457a1.105 1.105 0 0 0-.81-.332l-9.542.186a1.103 1.103 0 0 0-.447.104z"/></g><g><path fill="#fff" d="M23.305 28.078c0 1.107-1.595 1.423-3.457 1.423v-2.926c1.862 0 3.457.395 3.457 1.503zm4.508-.08c0-2.599-1.745-3.954-6.17-3.954-.557-.032-1.208 0-3.384 0H15.34v10.914h4.512v-2.926c2.123 0 3.582.997 3.582 2.215v.711h4.512v-.711c0-1.55-.929-2.705-2.6-3.433 1.565-.617 2.467-1.566 2.467-2.815z"/></g></g><g><path fill="none" stroke="#fff" stroke-miterlimit="20" stroke-width="1.1" d="M1.05 6.06a5.5 5.5 0 0 1 5.5-5.5h28.892a5.5 5.5 0 0 1 5.5 5.5v26.886a5.5 5.5 0 0 1-5.5 5.5H6.55a5.5 5.5 0 0 1-5.5-5.5z"/></g></g></g></svg>