<svg xmlns="http://www.w3.org/2000/svg" width="41" height="39" viewBox="0 0 41 39"><defs><clipPath id="7pfsa"><path d="M21.34 29.1h4.022v4.197H21.34z"/></clipPath><clipPath id="7pfsb"><path d="M25.89 29.1h2.765v4.123H25.89z"/></clipPath><clipPath id="7pfsc"><path d="M29.09 29.1h3.414v4.123H29.09z"/></clipPath><clipPath id="7pfsd"><path d="M32.79 29.1h1.278v4.123H32.79z"/></clipPath></defs><g><g><g><g><g><path fill="#fff" d="M5.007 29.415l1.038-5.655h6.265v2.356H8.069l-.32 1.47c.61-.444 1.29-.527 2.024-.527 1.871 0 3.327 1.136 3.327 3.09 0 2.703-2.149 3.59-4.38 3.59-2.134 0-3.656-1.247-4.21-3.049h3.032c.125.568.72.887 1.275.887.845 0 1.4-.568 1.4-1.289 0-.804-.388-1.414-1.261-1.414-.43 0-.943.111-1.165.54z"/></g><g><g><path fill="none" stroke="#fff" stroke-miterlimit="20" stroke-width="1.78" d="M17.117 23.902c-.482-1.44-1.525-2.688-2.777-3.572"/></g><g><path fill="none" stroke="#fff" stroke-miterlimit="20" stroke-width="1.78" d="M19.942 23.028c-.704-2.148-2.199-3.974-4.002-5.248"/></g><g><path fill="none" stroke="#fff" stroke-miterlimit="20" stroke-width="1.78" d="M22.933 22.107c-.956-2.892-2.885-5.349-5.303-7.037"/></g><g><path fill="none" stroke="#fff" stroke-miterlimit="20" stroke-width="1.78" d="M25.827 21.192c-1.22-3.607-3.546-6.673-6.557-8.762"/></g><g><path fill="none" stroke="#fff" stroke-miterlimit="20" stroke-width="1.78" d="M28.695 20.3c-1.43-4.322-4.204-7.994-7.805-10.48"/></g><g><path fill="none" stroke="#fff" stroke-miterlimit="20" stroke-width="1.29" d="M31.769 19.35c-1.652-5.085-4.905-9.408-9.139-12.32"/></g><g><path fill="none" stroke="#fff" stroke-miterlimit="20" stroke-width="1.29" d="M34.475 18.513C32.625 12.745 28.94 7.845 24.14 4.56"/></g></g><g><g><path fill="#fff" d="M19.245 29.1l-.983 2.237-.74-2.237h-1.476l-.216 4.123h1.062l.14-2.683.897 2.683h.47l1.183-2.683-.14 2.683h1.062l.216-4.123z"/></g><g><g><g><g/><g clip-path="url(#7pfsa)"><path fill="#fff" d="M21.343 31.554l.129-2.454h1.08l-.126 2.417c-.026.488.246.84.826.84.569 0 .883-.352.909-.84l.126-2.417h1.075l-.129 2.448c-.053 1.026-.715 1.75-2.03 1.75-1.327 0-1.913-.73-1.86-1.744"/></g></g></g><g><g><g/><g clip-path="url(#7pfsb)"><path fill="#fff" d="M25.89 33.223l.216-4.123h1.062L27 32.296h1.655l-.048.927z"/></g></g></g><g><g><g/><g clip-path="url(#7pfsc)"><path fill="#fff" d="M30.077 33.223l.168-3.196H29.09l.049-.927h3.365l-.05.927h-1.147l-.168 3.196z"/></g></g></g><g><g><g/><g clip-path="url(#7pfsd)"><path fill="#fff" d="M32.79 33.223l.216-4.123h1.062l-.216 4.123z"/></g></g></g></g></g></g></g><g><path fill="none" stroke="#fff" stroke-miterlimit="20" d="M.5 6.05A5.5 5.5 0 0 1 6 .55h28.6a5.5 5.5 0 0 1 5.5 5.5v26.4a5.5 5.5 0 0 1-5.5 5.5H6a5.5 5.5 0 0 1-5.5-5.5z"/></g></g></g></svg>