<svg xmlns="http://www.w3.org/2000/svg" width="42" height="39" viewBox="0 0 42 39"><g><g><g><g><path fill="none" stroke="#fff" stroke-miterlimit="20" stroke-width="1.1" d="M1.04 6.06a5.5 5.5 0 0 1 5.5-5.5h28.79a5.5 5.5 0 0 1 5.5 5.5v26.886a5.5 5.5 0 0 1-5.5 5.5H6.54a5.5 5.5 0 0 1-5.5-5.5z"/></g></g><g><path fill="#fff" d="M34.954 21.434h-1.71v2.563h1.052c.421 0 .776-.04 1.065-.118.29-.08.524-.206.705-.382.123-.111.224-.249.303-.413.079-.163.118-.33.118-.5a.982.982 0 0 0-.394-.799c-.287-.234-.666-.35-1.14-.35zm-2.4-.608h2.268c.607 0 1.109.1 1.506.3.554.28.831.75.831 1.407 0 .452-.125.822-.376 1.109-.251.287-.654.516-1.208.686.099.041.187.081.262.12a.7.7 0 0 1 .184.127c.204.176.365.434.482.774l.875 2.376h-.78l-.454-1.443c-.24-.722-.49-1.194-.753-1.417-.228-.211-.604-.317-1.13-.317h-1.015v3.177h-.691zm-5.85-.009h4.263v.608h-3.572v2.384h3.441v.607h-3.441v2.702h3.599v.607h-4.29zm-5.256.608h-.681v5.692h1.127c.658 0 1.214-.229 1.668-.686.53-.534.795-1.276.795-2.226 0-.187-.01-.363-.03-.528a3.512 3.512 0 0 0-.092-.475 2.546 2.546 0 0 0-.682-1.143 2.103 2.103 0 0 0-.83-.493c-.302-.094-.727-.14-1.275-.14zm-1.371-.608h1.639c.604 0 1.11.077 1.517.23a2.498 2.498 0 0 1 .907.59c.32.321.563.709.732 1.16.168.452.253.924.253 1.417 0 1.097-.311 1.96-.933 2.587-.628.616-1.488.924-2.58.924h-1.535zm-7.143 6.908v-6.899h.628l4.211 5.843v-5.843h.629v6.899h-.629l-4.21-5.834v5.834zm-2.47-6.899h.681v6.899h-.681zm-5.964 0h4.263v.607H5.19v2.561h3.424v.563H5.19v3.168H4.5zm28.055-9.441h4.263v.608h-3.573v2.388h3.442v.608h-3.442v2.705h3.599v.608h-4.29zm-7.473 6.908v-6.908h.63l4.21 5.85v-5.85h.629v6.908h-.63l-4.21-5.842v5.842zm-4.61-.547c.647 0 1.197-.273 1.651-.818.46-.558.69-1.252.69-2.085 0-.405-.055-.78-.166-1.126a2.978 2.978 0 0 0-.498-.942c-.442-.568-.99-.853-1.642-.853-.646 0-1.194.285-1.642.853-.443.558-.664 1.253-.664 2.085 0 .868.233 1.575.699 2.12.437.51.96.766 1.572.766zm.053.652c-.792 0-1.485-.311-2.08-.933-.652-.675-.978-1.546-.978-2.613 0-1.021.306-1.884.917-2.588.594-.663 1.3-.994 2.114-.994.827 0 1.538.326 2.132.977.611.686.917 1.551.917 2.596 0 1.085-.332 1.965-.996 2.64-.588.61-1.263.915-2.026.915zm-9.817-7.013h.682v3.013h3.765v-3.013h.681v6.908h-.681V14.98H11.39v3.313h-.682zm-3.954.608H5.26v2.554h1.546c.408 0 .76-.108 1.057-.325.332-.246.498-.576.498-.992 0-.468-.195-.804-.585-1.01-.286-.151-.626-.227-1.022-.227zm-2.184-.608h2.192c.63 0 1.145.108 1.547.326.541.305.812.793.812 1.462 0 .647-.224 1.146-.673 1.499-.407.329-.931.493-1.572.493H5.26v3.128h-.69z"/><path fill="none" stroke="#fffffe" stroke-miterlimit="20" stroke-width=".77" d="M34.954 21.434h-1.71v2.563h1.052c.421 0 .776-.04 1.065-.118.29-.08.524-.206.705-.382.123-.111.224-.249.303-.413.079-.163.118-.33.118-.5a.982.982 0 0 0-.394-.799c-.287-.234-.666-.35-1.14-.35zm-2.4-.608h2.268c.607 0 1.109.1 1.506.3.554.28.831.75.831 1.407 0 .452-.125.822-.376 1.109-.251.287-.654.516-1.208.686.099.041.187.081.262.12a.7.7 0 0 1 .184.127c.204.176.365.434.482.774l.875 2.376h-.78l-.454-1.443c-.24-.722-.49-1.194-.753-1.417-.228-.211-.604-.317-1.13-.317h-1.015v3.177h-.691zm-5.85-.009h4.263v.608h-3.572v2.384h3.441v.607h-3.441v2.702h3.599v.607h-4.29zm-5.256.608h-.681v5.692h1.127c.658 0 1.214-.229 1.668-.686.53-.534.795-1.276.795-2.226 0-.187-.01-.363-.03-.528a3.512 3.512 0 0 0-.092-.475 2.546 2.546 0 0 0-.682-1.143 2.103 2.103 0 0 0-.83-.493c-.302-.094-.727-.14-1.275-.14zm-1.371-.608h1.639c.604 0 1.11.077 1.517.23a2.498 2.498 0 0 1 .907.59c.32.321.563.709.732 1.16.168.452.253.924.253 1.417 0 1.097-.311 1.96-.933 2.587-.628.616-1.488.924-2.58.924h-1.535zm-7.143 6.908v-6.899h.628l4.211 5.843v-5.843h.629v6.899h-.629l-4.21-5.834v5.834zm-2.47-6.899h.681v6.899h-.681zm-5.964 0h4.263v.607H5.19v2.561h3.424v.563H5.19v3.168H4.5zm28.055-9.441h4.263v.608h-3.573v2.388h3.442v.608h-3.442v2.705h3.599v.608h-4.29zm-7.473 6.908v-6.908h.63l4.21 5.85v-5.85h.629v6.908h-.63l-4.21-5.842v5.842zm-4.61-.547c.647 0 1.197-.273 1.651-.818.46-.558.69-1.252.69-2.085 0-.405-.055-.78-.166-1.126a2.978 2.978 0 0 0-.498-.942c-.442-.568-.99-.853-1.642-.853-.646 0-1.194.285-1.642.853-.443.558-.664 1.253-.664 2.085 0 .868.233 1.575.699 2.12.437.51.96.766 1.572.766zm.053.652c-.792 0-1.485-.311-2.08-.933-.652-.675-.978-1.546-.978-2.613 0-1.021.306-1.884.917-2.588.594-.663 1.3-.994 2.114-.994.827 0 1.538.326 2.132.977.611.686.917 1.551.917 2.596 0 1.085-.332 1.965-.996 2.64-.588.61-1.263.915-2.026.915zm-9.817-7.013h.682v3.013h3.765v-3.013h.681v6.908h-.681V14.98H11.39v3.313h-.682zm-3.954.608H5.26v2.554h1.546c.408 0 .76-.108 1.057-.325.332-.246.498-.576.498-.992 0-.468-.195-.804-.585-1.01-.286-.151-.626-.227-1.022-.227zm-2.184-.608h2.192c.63 0 1.145.108 1.547.326.541.305.812.793.812 1.462 0 .647-.224 1.146-.673 1.499-.407.329-.931.493-1.572.493H5.26v3.128h-.69z"/></g></g></g></svg>