<svg xmlns="http://www.w3.org/2000/svg" width="42" height="39" viewBox="0 0 42 39"><g><g><g><path fill="none" stroke="#fff" stroke-miterlimit="20" stroke-width="1.1" d="M.8 6.06A5.5 5.5 0 0 1 6.3.56h28.892a5.5 5.5 0 0 1 5.5 5.5v26.886a5.5 5.5 0 0 1-5.5 5.5H6.3a5.5 5.5 0 0 1-5.5-5.5z"/></g><g><g><path fill="#fff" d="M33.582 17.266l.188.848h4.191v-1.478h-2.91V7.8h-1.47zm-5.336-.418l.426 1.266h.762l.432-2.216h2.003l.432 2.216h1.28v-.848L31.48 7.8h-1.225zm1.88-2.341l.72-3.737h.029l.72 3.737zm-5.257 3.607V13.71h.879l1.368 4.404h.849l.281-1.266-1.159-3.442c.47-.26.8-.604.987-1.029.187-.424.281-.941.281-1.55 0-2.018-.864-3.027-2.593-3.027H23.4v10.314zm.763-8.923c.51 0 .855.135 1.038.405.086.145.144.317.172.514.03.198.044.428.044.689 0 .26-.015.49-.044.688a1.421 1.421 0 0 1-.158.5.843.843 0 0 1-.36.31c-.154.073-.36.11-.62.11h-.835V9.19zm-2.275 8.923v-1.478h-2.91V13.61h2.536v-1.39h-2.535V9.19h2.91V7.8h-4.38v10.314zm-8.454 0v-6.2h.028l2.248 6.2h1.383V7.8h-1.47v6.214h-.029L14.845 7.8h-1.412v10.314zm-1.93 0V7.8h-1.469v10.314zm-7.144 0v-6.272h.03l1.44 4.432h.734l1.455-4.432h.03v6.272h1.468V7.8H9.56l-1.872 5.461h-.03L5.773 7.8H4.36v10.314z"/></g><g><path fill="#fff" d="M36.307 21.612c0-.645-.238-1.217-.714-1.716a2.777 2.777 0 0 0-.845-.578 2.613 2.613 0 0 0-1.079-.218c-.465 0-.866.08-1.202.242a2.348 2.348 0 0 0-.83.647c-.227.27-.398.593-.512.967-.114.375-.17.77-.17 1.186 0 .697.116 1.277.349 1.74.232.462.69.834 1.373 1.115l1.132.468c.197.083.354.161.473.234a.875.875 0 0 1 .287.28c.062.115.104.266.124.453.021.187.031.426.031.718 0 .25-.007.475-.023.678a1.237 1.237 0 0 1-.147.523.837.837 0 0 1-.35.335c-.15.078-.359.117-.628.117-.403 0-.69-.117-.86-.35a1.305 1.305 0 0 1-.257-.789v-.499h-1.582v.593c0 .374.07.72.21 1.037.14.318.328.596.566.835.238.24.522.426.853.562.33.135.688.202 1.07.202.507 0 .936-.083 1.288-.25.352-.166.636-.394.853-.686.207-.28.357-.621.45-1.021.093-.4.14-.835.14-1.303 0-.406-.02-.767-.062-1.084a2.966 2.966 0 0 0-.233-.85 2.055 2.055 0 0 0-.512-.632 2.996 2.996 0 0 0-.853-.476l-1.21-.484a2.489 2.489 0 0 1-.489-.25.866.866 0 0 1-.271-.296 1.04 1.04 0 0 1-.117-.39 5.302 5.302 0 0 1-.023-.546c0-.187.015-.366.047-.538.03-.171.087-.325.17-.46.083-.125.192-.229.326-.312.134-.083.31-.125.527-.125.404 0 .69.133.861.398.171.265.256.58.256.944v.359h1.583zm-6.742 0c0-.645-.238-1.217-.714-1.716a2.777 2.777 0 0 0-.845-.578 2.613 2.613 0 0 0-1.078-.218c-.466 0-.866.08-1.203.242a2.348 2.348 0 0 0-.83.647c-.227.27-.398.593-.511.967-.114.375-.171.77-.171 1.186 0 .697.116 1.277.349 1.74.233.462.69.834 1.373 1.115l1.132.468c.197.083.355.161.474.234a.875.875 0 0 1 .287.28c.062.115.103.266.124.453.02.187.03.426.03.718 0 .25-.007.475-.023.678a1.237 1.237 0 0 1-.147.523.837.837 0 0 1-.35.335c-.149.078-.358.117-.627.117-.404 0-.69-.117-.861-.35a1.305 1.305 0 0 1-.256-.789v-.499h-1.583v.593c0 .374.07.72.21 1.037.14.318.328.596.566.835.238.24.522.426.853.562.331.135.688.202 1.07.202.507 0 .937-.083 1.288-.25.352-.166.636-.394.854-.686.206-.28.356-.621.45-1.021.092-.4.139-.835.139-1.303 0-.406-.02-.767-.062-1.084a2.966 2.966 0 0 0-.233-.85 2.055 2.055 0 0 0-.512-.632 2.996 2.996 0 0 0-.853-.476l-1.21-.484a2.489 2.489 0 0 1-.489-.25.866.866 0 0 1-.271-.296 1.04 1.04 0 0 1-.116-.39 5.302 5.302 0 0 1-.024-.546c0-.187.016-.366.047-.538.03-.171.088-.325.17-.46.083-.125.192-.229.326-.312.135-.083.31-.125.528-.125.403 0 .69.133.86.398.171.265.257.58.257.944v.359h1.582zM18.56 30.3l.466-2.387h2.16l.466 2.387h1.585l-2.471-11.107h-1.32L16.974 30.3zm.742-3.875l.775-4.034h.031l.776 4.034zm-3.09 3.875V28.71h-3.128v-9.516h-1.579V30.3zM4.36 27.68c0 .468.078.868.233 1.201.155.333.362.609.62.827.248.229.53.4.846.515.315.114.633.171.954.171.32 0 .638-.057.954-.171.315-.115.602-.286.86-.515.25-.218.45-.494.606-.827.155-.333.233-.733.233-1.201v-3.494h-2.84v1.404h1.257v2.09c0 .385-.106.668-.318.85a1.118 1.118 0 0 1-.752.273c-.29 0-.54-.09-.753-.273-.212-.182-.318-.465-.318-.85v-5.866c0-.384.106-.668.318-.85.212-.182.463-.273.753-.273s.54.091.752.273c.212.182.318.466.318.85v.562h1.583v-.562c0-.447-.078-.842-.233-1.185a2.612 2.612 0 0 0-.605-.858 2.808 2.808 0 0 0-.861-.5 2.78 2.78 0 0 0-.954-.171c-.32 0-.639.057-.954.172a2.62 2.62 0 0 0-.846.499 2.505 2.505 0 0 0-.62.858 2.852 2.852 0 0 0-.233 1.185z"/><path fill="none" stroke="#fff" stroke-miterlimit="20" stroke-width=".66" d="M36.307 21.612c0-.645-.238-1.217-.714-1.716a2.777 2.777 0 0 0-.845-.578 2.613 2.613 0 0 0-1.079-.218c-.465 0-.866.08-1.202.242a2.348 2.348 0 0 0-.83.647c-.227.27-.398.593-.512.967-.114.375-.17.77-.17 1.186 0 .697.116 1.277.349 1.74.232.462.69.834 1.373 1.115l1.132.468c.197.083.354.161.473.234a.875.875 0 0 1 .287.28c.062.115.104.266.124.453.021.187.031.426.031.718 0 .25-.007.475-.023.678a1.237 1.237 0 0 1-.147.523.837.837 0 0 1-.35.335c-.15.078-.359.117-.628.117-.403 0-.69-.117-.86-.35a1.305 1.305 0 0 1-.257-.789v-.499h-1.582v.593c0 .374.07.72.21 1.037.14.318.328.596.566.835.238.24.522.426.853.562.33.135.688.202 1.07.202.507 0 .936-.083 1.288-.25.352-.166.636-.394.853-.686.207-.28.357-.621.45-1.021.093-.4.14-.835.14-1.303 0-.406-.02-.767-.062-1.084a2.966 2.966 0 0 0-.233-.85 2.055 2.055 0 0 0-.512-.632 2.996 2.996 0 0 0-.853-.476l-1.21-.484a2.489 2.489 0 0 1-.489-.25.866.866 0 0 1-.271-.296 1.04 1.04 0 0 1-.117-.39 5.302 5.302 0 0 1-.023-.546c0-.187.015-.366.047-.538.03-.171.087-.325.17-.46.083-.125.192-.229.326-.312.134-.083.31-.125.527-.125.404 0 .69.133.861.398.171.265.256.58.256.944v.359h1.583zm-6.742 0c0-.645-.238-1.217-.714-1.716a2.777 2.777 0 0 0-.845-.578 2.613 2.613 0 0 0-1.078-.218c-.466 0-.866.08-1.203.242a2.348 2.348 0 0 0-.83.647c-.227.27-.398.593-.511.967-.114.375-.171.77-.171 1.186 0 .697.116 1.277.349 1.74.233.462.69.834 1.373 1.115l1.132.468c.197.083.355.161.474.234a.875.875 0 0 1 .287.28c.062.115.103.266.124.453.02.187.03.426.03.718 0 .25-.007.475-.023.678a1.237 1.237 0 0 1-.147.523.837.837 0 0 1-.35.335c-.149.078-.358.117-.627.117-.404 0-.69-.117-.861-.35a1.305 1.305 0 0 1-.256-.789v-.499h-1.583v.593c0 .374.07.72.21 1.037.14.318.328.596.566.835.238.24.522.426.853.562.331.135.688.202 1.07.202.507 0 .937-.083 1.288-.25.352-.166.636-.394.854-.686.206-.28.356-.621.45-1.021.092-.4.139-.835.139-1.303 0-.406-.02-.767-.062-1.084a2.966 2.966 0 0 0-.233-.85 2.055 2.055 0 0 0-.512-.632 2.996 2.996 0 0 0-.853-.476l-1.21-.484a2.489 2.489 0 0 1-.489-.25.866.866 0 0 1-.271-.296 1.04 1.04 0 0 1-.116-.39 5.302 5.302 0 0 1-.024-.546c0-.187.016-.366.047-.538.03-.171.088-.325.17-.46.083-.125.192-.229.326-.312.135-.083.31-.125.528-.125.403 0 .69.133.86.398.171.265.257.58.257.944v.359h1.582zM18.56 30.3l.466-2.387h2.16l.466 2.387h1.585l-2.471-11.107h-1.32L16.974 30.3zm.742-3.875l.775-4.034h.031l.776 4.034zm-3.09 3.875V28.71h-3.128v-9.516h-1.579V30.3zM4.36 27.68c0 .468.078.868.233 1.201.155.333.362.609.62.827.248.229.53.4.846.515.315.114.633.171.954.171.32 0 .638-.057.954-.171.315-.115.602-.286.86-.515.25-.218.45-.494.606-.827.155-.333.233-.733.233-1.201v-3.494h-2.84v1.404h1.257v2.09c0 .385-.106.668-.318.85a1.118 1.118 0 0 1-.752.273c-.29 0-.54-.09-.753-.273-.212-.182-.318-.465-.318-.85v-5.866c0-.384.106-.668.318-.85.212-.182.463-.273.753-.273s.54.091.752.273c.212.182.318.466.318.85v.562h1.583v-.562c0-.447-.078-.842-.233-1.185a2.612 2.612 0 0 0-.605-.858 2.808 2.808 0 0 0-.861-.5 2.78 2.78 0 0 0-.954-.171c-.32 0-.639.057-.954.172a2.62 2.62 0 0 0-.846.499 2.505 2.505 0 0 0-.62.858 2.852 2.852 0 0 0-.233 1.185z"/></g></g></g></g></svg>