<svg xmlns="http://www.w3.org/2000/svg" width="41" height="40" viewBox="0 0 41 40"><g><g><g><g><path fill="#fff" d="M3.39 15v6.688c7.297 3.788 16.452 4.895 27.463 3.322 4.261-.525 6.54-.95 6.838-1.273V17.25c-12.726 1.084-21.46 1.084-26.203 0C6.745 16.164 4.046 15.415 3.39 15z"/></g><g><path fill="#d8d8d8" d="M17.65 18v-1.57h11.04v10.038H17.65z"/><path fill="none" stroke="#484848" stroke-miterlimit="20" stroke-width="1.1" d="M17.65 18v0-1.57 0h11.04v10.038H17.65v0z"/></g><g><path fill="#fff" d="M17.65 18.04h9.815v6.812H17.65z"/></g><g><path fill="#484848" d="M22.1 20.97h6.618v1.114H22.1z"/><path fill="none" stroke="#4a4a4a" stroke-miterlimit="20" stroke-width="1.1" d="M22.1 20.97v0h6.618v1.114H22.1v0z"/></g><g><path fill="#d8d8d8" d="M22 20.97h1.108v1.114H22z"/><path fill="none" stroke="#979797" stroke-miterlimit="20" stroke-width="1.1" d="M22 20.97v0h1.108v1.114H22v0z"/></g><g><path fill="#979797" d="M12.8 17.55l4.316.345v7.622l-4.316-.603z"/></g><g><path fill="#fff" d="M13.85 16.79h2.216v9.428H13.85z"/></g><g><path fill="none" stroke="#232323" stroke-miterlimit="20" stroke-width=".55" d="M8.366 16.51c-.007.025-1.304 1.244-1.75 3.051-.317 1.286.086 3.042.382 4.1"/></g><g><path fill="#232323" d="M34.338 22.169c.612 0 1.108-.5 1.108-1.115s-.496-1.114-1.108-1.114c-.612 0-1.108.499-1.108 1.114 0 .616.496 1.115 1.108 1.115z"/></g><g><path fill="#232323" d="M10.168 21.919c.612 0 1.108-.5 1.108-1.115s-.496-1.114-1.108-1.114c-.612 0-1.108.499-1.108 1.114 0 .616.496 1.115 1.108 1.115z"/></g></g><g><path fill="none" stroke="#fff" stroke-miterlimit="20" stroke-width="1.1" d="M.62 6.54a5.5 5.5 0 0 1 5.5-5.5h28.892a5.5 5.5 0 0 1 5.5 5.5v26.886a5.5 5.5 0 0 1-5.5 5.5H6.12a5.5 5.5 0 0 1-5.5-5.5z"/></g></g></g></svg>