<svg xmlns="http://www.w3.org/2000/svg" width="41" height="39" viewBox="0 0 41 39"><g><g><g><g><g><path fill="#fff" d="M21.8 19.761h7.4c0 .902-.037.205-.111.941a8.768 8.768 0 0 1-.448 2.051 8.205 8.205 0 0 1-1.274 2.355 7.475 7.475 0 0 1-1.889 1.713 8.842 8.842 0 0 1-2.38 1.048c-.865.24-1.774.36-2.728.36-1.311 0-2.507-.217-3.588-.653A8.091 8.091 0 0 1 14 25.74c-.775-.788-1.379-1.735-1.81-2.84-.433-1.104-.649-2.324-.649-3.662 0-1.322.212-2.535.637-3.64.425-1.104 1.028-2.047 1.81-2.828.783-.781 1.726-1.39 2.829-1.825 1.103-.436 2.332-.654 3.688-.654 1.759 0 3.297.278 4.623 1.044 1.327.767 3.744 3.16 3.744 5.402h-4.745c-.388-.932-.89-1.6-1.51-2.006-.618-.406-1.322-.609-2.112-.609-.655 0-1.252.124-1.788.372a3.88 3.88 0 0 0-1.375 1.06 5.097 5.097 0 0 0-.894 1.656c-.216.646-.324 1.367-.324 2.164a6.9 6.9 0 0 0 .28 2.005c.185.616.465 1.15.837 1.6.373.451.835.8 1.386 1.048.552.248 1.193.372 1.923.372.432 0 .85-.048 1.252-.146a3.29 3.29 0 0 0 1.084-.473c.32-.218.585-.5.794-.846.208-.345.35.75.424.254h-2.302z"/></g><g transform="rotate(90 28 24)"><path fill="#fff" d="M23.57 22.13h7.96v3.294h-7.96z"/></g></g><g><path fill="none" stroke="#fff" stroke-miterlimit="20" stroke-width="2.2" d="M7.24 10.822v0V6.13v0h26.221v4.692"/></g><g transform="rotate(180 20.5 30)"><path fill="none" stroke="#fff" stroke-miterlimit="20" stroke-width="2.2" d="M33.491 32.212v0-4.692 0H7.27v4.692"/></g></g><g><path fill="none" stroke="#fff" stroke-miterlimit="20" stroke-width="1.1" d="M.6 6.06A5.5 5.5 0 0 1 6.1.56h28.79a5.5 5.5 0 0 1 5.5 5.5v26.886a5.5 5.5 0 0 1-5.5 5.5H6.1a5.5 5.5 0 0 1-5.5-5.5z"/></g></g></g></svg>