<svg xmlns="http://www.w3.org/2000/svg" width="41" height="39" viewBox="0 0 41 39"><g><g><g><g><path fill="#fff" d="M18.93 8.69h1.1v1.103h-1.1z"/><path fill="none" stroke="#19171c" stroke-miterlimit="20" stroke-width="1.1" d="M18.93 8.69v0h1.1v1.103h-1.1v0z"/></g><g><path fill="#fff" d="M8.52 19.05h1.1v1.103h-1.1z"/><path fill="none" stroke="#19171c" stroke-miterlimit="20" stroke-width="1.1" d="M8.52 19.05v0h1.1v1.103h-1.1v0z"/></g><g><path fill="#fff" d="M18.93 29.08h1.1v1.103h-1.1z"/><path fill="none" stroke="#19171c" stroke-miterlimit="20" stroke-width="1.1" d="M18.93 29.08v0h1.1v1.103h-1.1v0z"/></g><g><path fill="#fff" d="M31.742 25.868h.616v-11.82a.308.308 0 1 0-.616 0z"/><path fill="none" stroke="#19171c" stroke-miterlimit="20" stroke-width="1.1" d="M31.742 25.868v0h.616v0-11.82a.308.308 0 1 0-.616 0z"/></g><g transform="rotate(-133 17 19.5)"><path fill="none" stroke="#fff" stroke-miterlimit="20" stroke-width="2.2" d="M19.22 33.073c7.551.008 13.666-6.105 13.657-13.656a13.638 13.638 0 0 0-1.277-5.764C29.42 8.98 24.68 5.736 19.188 5.73 11.636 5.721 5.52 11.835 5.53 19.385"/></g><g transform="rotate(-126 17.5 19.5)"><path fill="#fff" d="M19.225 34.177c8.163.009 14.772-6.596 14.763-14.752a14.727 14.727 0 0 0-1.38-6.228A14.82 14.82 0 0 0 19.192 4.64C11.03 4.631 4.42 11.236 4.43 19.392l2.203.002c-.007-6.94 5.617-12.56 12.562-12.552a12.61 12.61 0 0 1 11.416 7.282 12.524 12.524 0 0 1 1.174 5.298c.007 6.94-5.617 12.56-12.562 12.553z"/></g><g transform="rotate(-41 16.5 15.5)"><path fill="#fff" d="M15.656 10.53l.086.544.423-.067-.072-.449zm.315 3.703l-.431 6.78 1.214-.17z"/><path fill="none" stroke="#19171c" stroke-miterlimit="20" stroke-width="1.1" d="M15.656 10.53l.086.544.423-.067-.072-.449zm.315 3.703l-.431 6.78 1.214-.17z"/></g><g transform="rotate(44 22 16)"><path fill="#fff" d="M23.041 10.318l-.423-.068-1.058 11.176 2.046.04z"/></g><g><path fill="#fff" d="M26.86 21.917l5.42-.92 4.887.92-5.11-4.307z"/><path fill="none" stroke="#19171c" stroke-miterlimit="20" stroke-width="1.1" d="M26.86 21.917v0l5.42-.92v0l4.887.92v0l-5.11-4.307v0z"/></g><g><path fill="none" stroke="#fff" stroke-miterlimit="20" stroke-width="1.1" d="M30.27 26.423v0h3.368v0l-1.584-1.853v0z"/></g><g><path fill="#fff" d="M29.37 12.006h2.322a4.386 4.386 0 0 0-.196-.648 5.559 5.559 0 0 0-.346-.648z"/></g><g transform="rotate(180 29 29)"><path fill="#fff" d="M30.072 29.916H27.75c.066-.278.131-.494.196-.648.064-.154.18-.37.346-.648z"/></g><g><path fill="#fff" d="M29.164 30.331c.124-.117.203-.199.24-.244.035-.046.096-.134.184-.265L27.75 28.62l1.322 1.635z"/></g></g><g><g><path fill="none" stroke="#fff" stroke-miterlimit="20" stroke-width="1.1" d="M.6 6.26A5.5 5.5 0 0 1 6.1.76h28.6a5.5 5.5 0 0 1 5.5 5.5v26.487a5.5 5.5 0 0 1-5.5 5.5H6.1a5.5 5.5 0 0 1-5.5-5.5z"/></g></g></g></g></svg>