<svg xmlns="http://www.w3.org/2000/svg" width="42" height="49" viewBox="0 0 42 49"><g><g><path fill="none" stroke="#fff" stroke-miterlimit="20" stroke-width="1.1" d="M1 6.5A5.5 5.5 0 0 1 6.5 1h29A5.5 5.5 0 0 1 41 6.5v26a5.5 5.5 0 0 1-5.5 5.5h-29A5.5 5.5 0 0 1 1 32.5z"/></g><g><path fill="#fff" d="M4 46.645l1.944-.125c.042.324.128.57.257.74.211.273.512.41.903.41.291 0 .516-.07.674-.21a.635.635 0 0 0 .237-.487.627.627 0 0 0-.226-.471c-.15-.139-.499-.27-1.046-.393-.896-.206-1.535-.48-1.917-.821a1.67 1.67 0 0 1-.578-1.307c0-.348.099-.677.296-.986.197-.31.493-.552.888-.73.396-.177.938-.265 1.627-.265.845 0 1.49.16 1.933.483.443.321.707.833.791 1.535l-1.926.115c-.051-.305-.159-.526-.322-.665-.164-.138-.39-.207-.68-.207-.237 0-.416.051-.536.154a.478.478 0 0 0-.18.377c0 .107.049.204.148.29.096.09.325.173.686.25.893.197 1.533.396 1.92.598.386.201.667.451.843.75.176.299.264.633.264 1.002a2.215 2.215 0 0 1-1.335 2.034c-.421.19-.952.284-1.593.284-1.125 0-1.904-.222-2.337-.665-.433-.443-.678-1.007-.735-1.69z"/></g><g><path fill="#fff" d="M15.07 43H17v3.515c0 .348-.058.677-.173.987a2.12 2.12 0 0 1-.542.812 2.178 2.178 0 0 1-.775.489c-.376.131-.827.197-1.354.197-.305 0-.637-.02-.997-.06-.36-.04-.661-.12-.903-.24a2.241 2.241 0 0 1-.665-.508c-.2-.22-.338-.447-.412-.68a3.338 3.338 0 0 1-.179-.997V43h1.93v3.6c0 .32.095.572.284.753.19.181.452.272.788.272.333 0 .594-.09.784-.268.19-.178.284-.43.284-.758z"/></g><g><path fill="#fff" d="M18 43h3.027c.659 0 1.152.16 1.48.479.329.32.493.773.493 1.363 0 .605-.179 1.079-.537 1.42-.357.341-.903.512-1.637.512h-.997V49H18z"/></g><g><path fill="#fff" d="M20 45h.319c.25 0 .427-.046.529-.14a.461.461 0 0 0 .152-.355c0-.141-.044-.26-.132-.358-.088-.098-.254-.147-.497-.147H20z"/></g><g><path fill="#fff" d="M24 43h4.911v1.281h-3.074v.954h2.852v1.223h-2.852v1.183H29V49h-5z"/></g><g><path fill="#fff" d="M31 49v-6h3.141c.583 0 1.028.05 1.336.147.308.099.556.28.745.547.189.266.283.59.283.972 0 .333-.072.62-.217.861a1.678 1.678 0 0 1-.595.588c-.16.095-.38.174-.661.237.225.074.388.147.49.221.07.05.17.154.303.315.131.161.22.285.264.373L37 49h-2.13l-1.007-1.834c-.128-.237-.242-.391-.341-.462a.8.8 0 0 0-.462-.14h-.167V49z"/></g><g><path fill="#fff" d="M32 45h.925c.1 0 .294-.022.581-.067a.651.651 0 0 0 .356-.154.375.375 0 0 0 .138-.286.402.402 0 0 0-.218-.365c-.145-.085-.418-.128-.818-.128H32z"/></g><g><path fill="#8d8b8e" d="M8 5l12.012 11L32 5z"/><path fill="none" stroke="#8d8b8e" stroke-linecap="round" stroke-miterlimit="20" stroke-width="1.1" d="M8 5v0l12.012 11v0L32 5v0z"/></g><g><path fill="#535154" d="M8 4.5h24"/><path fill="none" stroke="#555154" stroke-linecap="round" stroke-miterlimit="20" stroke-width="1.1" d="M8 4.5h24"/></g><g><path fill="#d8d8d8" d="M30 6.262l-.524.464-18.907.012-.569-.47z"/><path fill="none" stroke="#525053" stroke-linecap="round" stroke-miterlimit="20" stroke-width="1.1" d="M30 6.262v0l-.524.464v0l-18.907.012v0L10 6.268v0z"/></g><g><path fill="#d8d8d8" d="M13 8.5h15"/><path fill="none" stroke="#525053" stroke-linecap="round" stroke-miterlimit="20" stroke-width="1.1" d="M13 8.5h15"/></g><g><path fill="#d8d8d8" d="M14 11.5h12"/><path fill="none" stroke="#19171c" stroke-linecap="round" stroke-miterlimit="20" stroke-width="1.1" d="M14 11.5h12"/></g><g><path fill="#8d8b8e" d="M32 28L19.988 17 8 28z"/><path fill="none" stroke="#8d8b8e" stroke-linecap="round" stroke-miterlimit="20" stroke-width="1.1" d="M32 28v0L19.988 17v0L8 28v0z"/></g><g><path fill="#535154" d="M32 28.5H8"/><path fill="none" stroke="#555154" stroke-linecap="round" stroke-miterlimit="20" stroke-width="1.1" d="M32 28.5H8"/></g><g><path fill="#d8d8d8" d="M10 26.738l.524-.464 18.907-.012.569.47z"/><path fill="none" stroke="#525053" stroke-linecap="round" stroke-miterlimit="20" stroke-width="1.1" d="M10 26.738v0l.524-.464v0l18.907-.012v0l.569.47v0z"/></g><g><path fill="#d8d8d8" d="M28 24.5H13"/><path fill="none" stroke="#525053" stroke-linecap="round" stroke-miterlimit="20" stroke-width="1.1" d="M28 24.5H13"/></g><g><path fill="#d8d8d8" d="M26 21.5H14"/><path fill="none" stroke="#19171c" stroke-linecap="round" stroke-miterlimit="20" stroke-width="1.1" d="M26 21.5H14"/></g><g><path fill="#fff" d="M6 12h3.124v6.03H14V20H6z"/></g><g><path fill="#fff" d="M16 12h7.858v1.708h-4.92v1.272h4.564v1.631h-4.563v1.577H24V20h-8z"/></g><g><path fill="#fff" d="M26 12h4.49c.885 0 1.6.098 2.145.295.545.196.995.478 1.35.846a3.3 3.3 0 0 1 .775 1.282c.16.487.24 1.004.24 1.55 0 .855-.119 1.518-.357 1.989a3.361 3.361 0 0 1-.99 1.184c-.423.318-.877.53-1.362.636A8.472 8.472 0 0 1 30.49 20H26z"/></g><g><path fill="#fff" d="M29 14v4h.755c.644 0 1.102-.052 1.374-.157.272-.105.486-.288.64-.55.154-.261.231-.685.231-1.27 0-.776-.172-1.307-.517-1.594-.345-.286-.916-.429-1.714-.429z"/></g><g><path fill="#fff" d="M5 30h32v3c0 1.657-1.386 3-3.097 3H8.097C6.387 36 5 34.657 5 33z"/></g><g><path fill="#0c0c0c" d="M16.632 34.34h-1.294l-.178.66H14l1.381-4h1.238L18 35h-1.188z"/></g><g><path fill="#0c0c0c" d="M15.871 33l-.372-1-.37 1z"/></g><g><path fill="#0c0c0c" d="M20.713 31H22v2.343c0 .233-.038.452-.115.658a1.413 1.413 0 0 1-.362.542 1.452 1.452 0 0 1-.517.326c-.25.087-.551.131-.902.131-.203 0-.425-.013-.665-.04-.24-.027-.44-.08-.602-.16a1.494 1.494 0 0 1-.443-.339 1.229 1.229 0 0 1-.274-.453c-.08-.25-.12-.472-.12-.665V31h1.287v2.4c0 .214.063.381.19.502.125.12.3.181.524.181.222 0 .397-.06.523-.178.126-.119.19-.287.19-.506z"/></g><g><path fill="#0c0c0c" d="M22 31h3v.988h-1.007V35h-.986v-3.012H22z"/></g><g><path fill="#0c0c0c" d="M26 33.003c0-.632.176-1.123.527-1.475.35-.352.84-.528 1.466-.528.643 0 1.138.173 1.486.518.347.346.521.83.521 1.453 0 .452-.076.823-.228 1.112-.152.29-.371.515-.658.676-.287.16-.645.241-1.073.241-.436 0-.796-.07-1.081-.208a1.629 1.629 0 0 1-.694-.66c-.177-.3-.266-.677-.266-1.13z"/></g><g><path fill="#0c0c0c" d="M27 33.002c0 .355.09.61.27.765.179.155.423.233.732.233.317 0 .563-.076.737-.228.174-.152.261-.424.261-.818 0-.33-.09-.572-.272-.725-.182-.153-.428-.229-.74-.229-.297 0-.537.078-.717.233-.18.155-.271.411-.271.77z"/></g></g></svg>