<svg xmlns="http://www.w3.org/2000/svg" width="42" height="40" viewBox="0 0 42 40"><g><g><g><path fill="none" stroke="#fff" stroke-miterlimit="20" stroke-width="1.1" d="M1.11 6.54a5.5 5.5 0 0 1 5.5-5.5H35.4a5.5 5.5 0 0 1 5.5 5.5v26.778a5.5 5.5 0 0 1-5.5 5.5H6.61a5.5 5.5 0 0 1-5.5-5.5z"/></g><g><g><path fill="#fff" d="M30.04 19.827c0 1.043.193 1.793.58 2.248.385.456.91.684 1.574.684.683 0 1.212-.223 1.586-.67.374-.446.561-1.247.561-2.403 0-.972-.195-1.683-.586-2.132-.39-.448-.92-.673-1.589-.673-.64 0-1.155.228-1.543.684-.388.456-.582 1.21-.582 2.262zm-3.178-.014c0-1.688.468-3.002 1.404-3.942.935-.94 2.238-1.411 3.907-1.411 1.712 0 3.031.462 3.957 1.386.926.924 1.39 2.218 1.39 3.883 0 1.208-.203 2.199-.607 2.972a4.339 4.339 0 0 1-1.754 1.806c-.765.43-1.718.645-2.86.645-1.16 0-2.12-.185-2.88-.557-.76-.371-1.376-.96-1.848-1.763-.472-.804-.709-1.81-.709-3.019zM17.1 14.636h8.517v2.208h-5.332v1.643h4.946v2.109h-4.946v2.038h5.486v2.342H17.1zm-11.72 0h2.968l3.872 5.72v-5.72h2.996v10.34H12.22L8.37 19.298v5.678H5.38z"/></g><g><g><path fill="none" stroke="#fff" stroke-linecap="round" stroke-miterlimit="20" stroke-width="1.43" d="M11.492 11.957L4.86 5.29"/></g><g><path fill="none" stroke="#fff" stroke-linecap="round" stroke-miterlimit="20" stroke-width="1.43" d="M29.52 11.957l6.632-6.667"/></g><g><path fill="none" stroke="#fff" stroke-linecap="round" stroke-miterlimit="20" stroke-width="1.43" d="M17.04 9.926L15.92 3.06"/></g><g><path fill="none" stroke="#fff" stroke-linecap="round" stroke-miterlimit="20" stroke-width="1.43" d="M23.98 9.926L25.1 3.06"/></g></g><g transform="matrix(1 0 0 -1 0 63)"><g><path fill="none" stroke="#fff" stroke-linecap="round" stroke-miterlimit="20" stroke-width="1.43" d="M11.492 35.857L4.86 29.19"/></g><g><path fill="none" stroke="#fff" stroke-linecap="round" stroke-miterlimit="20" stroke-width="1.43" d="M29.52 35.857l6.632-6.667"/></g><g><path fill="none" stroke="#fff" stroke-linecap="round" stroke-miterlimit="20" stroke-width="1.43" d="M17.04 33.836l-1.12-6.866"/></g><g><path fill="none" stroke="#fff" stroke-linecap="round" stroke-miterlimit="20" stroke-width="1.43" d="M23.98 33.836l1.12-6.866"/></g></g></g></g></g></svg>