<svg xmlns="http://www.w3.org/2000/svg" width="42" height="50" viewBox="0 0 42 50"><g><g><g><path fill="none" stroke="#fff" stroke-miterlimit="20" stroke-width="1.1" d="M1.04 6.54a5.5 5.5 0 0 1 5.5-5.5h28.79a5.5 5.5 0 0 1 5.5 5.5v26.778a5.5 5.5 0 0 1-5.5 5.5H6.54a5.5 5.5 0 0 1-5.5-5.5z"/></g><g><g><path fill="#fff" d="M35.346 8.146H7.072L5.2 4.4h31.977zm-1.729 3.537H8.84L7.719 9.44h26.994zm-9.354 19.136l-2.899 5.93-2.963-5.93zm7.616-15.6H10.606l-1.12-2.241h23.488z"/></g><g><g><path fill="#fff" d="M32.638 26.548c0 .244.078.447.232.608a.791.791 0 0 0 .597.242c.243 0 .442-.08.597-.242a.843.843 0 0 0 .232-.608V19.58a.843.843 0 0 0-.232-.608.791.791 0 0 0-.597-.242.791.791 0 0 0-.597.242.843.843 0 0 0-.232.608zm-1.691-6.968c0-.4.069-.755.207-1.066.138-.312.324-.578.556-.8.232-.223.5-.392.804-.509.304-.117.622-.175.953-.175.332 0 .65.058.954.175.304.117.572.286.804.508.232.223.417.49.555.8.138.312.208.667.208 1.067v6.968c0 .4-.07.755-.208 1.067a2.496 2.496 0 0 1-.555.8c-.232.222-.5.391-.804.508a2.638 2.638 0 0 1-.954.175c-.331 0-.65-.058-.953-.175a2.388 2.388 0 0 1-.804-.508 2.496 2.496 0 0 1-.556-.8 2.604 2.604 0 0 1-.207-1.067zm-4.222 6.968c0 .244.077.447.23.608a.784.784 0 0 0 .594.242c.242 0 .44-.08.594-.242a.846.846 0 0 0 .23-.608V19.58a.846.846 0 0 0-.23-.608.784.784 0 0 0-.594-.242c-.241 0-.44.08-.593.242a.846.846 0 0 0-.23.608zm-1.691-6.968c0-.4.069-.755.207-1.066.138-.312.324-.578.556-.8.232-.223.5-.392.804-.509.304-.117.622-.175.953-.175.332 0 .65.058.954.175.304.117.572.286.804.508.232.223.417.49.555.8.138.312.208.667.208 1.067v6.968c0 .4-.07.755-.208 1.067a2.496 2.496 0 0 1-.555.8c-.232.222-.5.391-.804.508a2.638 2.638 0 0 1-.954.175c-.331 0-.65-.058-.953-.175a2.388 2.388 0 0 1-.804-.508 2.496 2.496 0 0 1-.556-.8 2.604 2.604 0 0 1-.207-1.067zm-4.222 6.968c0 .244.078.447.232.608a.791.791 0 0 0 .597.242c.243 0 .442-.08.597-.242a.843.843 0 0 0 .232-.608V19.58a.843.843 0 0 0-.232-.608.791.791 0 0 0-.597-.242.791.791 0 0 0-.597.242.843.843 0 0 0-.232.608zm-1.691-6.968c0-.4.069-.755.207-1.066.138-.312.324-.578.556-.8.232-.223.5-.392.804-.509.304-.117.622-.175.953-.175.332 0 .65.058.954.175.304.117.572.286.804.508.232.223.417.49.555.8.138.312.208.667.208 1.067v6.968c0 .4-.07.755-.208 1.067a2.496 2.496 0 0 1-.555.8c-.232.222-.5.391-.804.508a2.638 2.638 0 0 1-.954.175c-.331 0-.65-.058-.953-.175a2.388 2.388 0 0 1-.804-.508 2.496 2.496 0 0 1-.556-.8 2.604 2.604 0 0 1-.207-1.067zm-2.96 9.418V18.93l-1.691 1.25v-1.8l1.691-1.25h1.692v11.868z"/></g><g><path fill="#fff" d="M6.921 28.978V18.91L5.23 20.16v-1.8l1.691-1.25h1.691v11.868z"/></g><g><path fill="none" stroke="#fff" stroke-miterlimit="20" stroke-width="1.43" d="M10.28 28.98l2.525-11.89"/></g></g></g><g><path fill="#fff" d="M30.68 45.597h.825c.09 0 .262-.03.518-.088a.516.516 0 0 0 .317-.201.598.598 0 0 0 .123-.372c0-.207-.064-.366-.194-.477-.13-.11-.373-.166-.73-.166h-.859zm-1.964 3.774V43.01h3.254c.604 0 1.065.052 1.384.156.319.104.576.297.772.58.195.281.293.625.293 1.03 0 .353-.075.658-.224.914-.15.256-.355.463-.617.622a2.35 2.35 0 0 1-.685.252c.232.078.402.156.508.235.072.052.176.163.313.334.136.17.228.302.274.395l.944 1.844h-2.207l-1.044-1.944c-.132-.252-.25-.415-.353-.49a.815.815 0 0 0-.478-.148h-.173v2.582zm-7.247-6.362h1.956v2.226h2.137V43.01h1.964v6.362h-1.964v-2.573h-2.137v2.573h-1.956zm-5.846 3.802V44.81l-1.692 2zm0 1.371H12.42v-1.454l3.203-3.828h1.533v3.91h.794v1.372h-.794v1.19h-1.533zm-3.637 1.19H6.71c.06-.524.244-1.017.55-1.479.307-.461.882-1.006 1.725-1.634.516-.384.845-.677.989-.876.144-.2.216-.39.216-.569a.666.666 0 0 0-.214-.497.743.743 0 0 0-.537-.206.747.747 0 0 0-.55.213c-.143.141-.239.392-.288.75l-1.761-.143c.069-.497.195-.886.38-1.165.184-.28.443-.493.779-.642.335-.15.8-.224 1.392-.224.619 0 1.1.07 1.444.213.344.141.615.36.812.653.197.294.296.623.296.987 0 .388-.113.758-.34 1.111-.225.353-.636.741-1.232 1.164-.354.246-.59.418-.71.516-.12.098-.26.227-.421.386h2.746z"/></g></g></g></svg>