<svg xmlns="http://www.w3.org/2000/svg" width="42" height="40" viewBox="0 0 42 40"><g><g><g><g><g><path fill="#fff" d="M13.87 20.2h20.87c.582-2.986 1.067-5.338 1.454-7.055.388-1.716.83-4.068 1.33-7.055H19.078c-.253 2.317-.82 4.668-1.7 7.055-.881 2.387-2.05 4.74-3.508 7.056z"/></g><g><path fill="#c7c5c6" d="M11.34 21.175h22.014c.625-2.861 1.089-5.14 1.391-6.837.303-1.697.652-3.976 1.047-6.838H16.548c-.253 2.245-.82 4.524-1.7 6.838-.881 2.313-2.05 4.592-3.508 6.837z"/></g><g><path fill="#535156" d="M10.67 24.136l21.317-1.158 1.448-6.149 1.301-8.649H15.878c-.253 2.62-.82 5.279-1.7 7.978a45.335 45.335 0 0 1-3.508 7.978z"/></g><g><path fill="#c7c5c6" d="M9.12 22.995h22.014c.625-2.861 1.089-5.14 1.391-6.837.303-1.697.652-3.976 1.047-6.838H14.328c-.253 2.245-.82 4.524-1.7 6.838-.881 2.313-2.05 4.592-3.508 6.837z"/></g><g><path fill="#fff" d="M9.73 25.664h19.443c.232-.064.852-1.886 1.86-5.464 1.002-4.537 1.608-8.024 1.818-10.46H13.607c-.252 3.434-.82 6.92-1.7 10.46-.881 3.538-1.607 5.36-2.177 5.464z"/></g><g><path fill="#535156" d="M8.39 27.005h19.036c.415.18 1.052-1.573 1.91-5.255 1.002-4.537 1.608-8.024 1.818-10.46H11.91c-.253 3.434-.82 6.92-1.7 10.46-.882 3.538-1.488 5.29-1.82 5.255z"/></g><g><path fill="#c7c5c6" d="M7.606 28.466h18.709c.353.138.881-1.564 1.586-5.106 1.002-4.537 1.608-8.024 1.818-10.46H10.475c-.252 3.434-.82 6.92-1.7 10.46-.881 3.538-1.27 5.24-1.17 5.106z"/></g><g><path fill="#fff" d="M4.33 35.26h19.036c1.396-2.437 2.595-5.924 3.598-10.46 1.002-4.537 1.608-8.024 1.818-10.46H9.538c-.253 3.434-.82 6.92-1.7 10.46A70.097 70.097 0 0 1 4.33 35.26z"/></g><g><path fill="#19171c" d="M24.64 22.843h-1.068l-1.504-3.751-.782 3.751h-1.068l1.163-5.583h1.07l1.508 3.736.779-3.736H25.8zm-6.444-2.163l-.323-2.247-1.344 2.247zm.148.93h-2.21l-.67 1.233h-1.18l3.155-5.583h1.274l.906 5.583h-1.088zm-4.639-4.35h1.125l-.703 3.382c-.187.896-.433 1.503-.737 1.82-.304.318-.77.477-1.401.477-.534 0-.934-.124-1.2-.37-.266-.246-.399-.581-.399-1.005a2.6 2.6 0 0 1 .019-.297l1.06-.115a2.135 2.135 0 0 0-.023.278c0 .178.05.314.152.408.101.094.257.14.467.14.294 0 .5-.085.619-.258.088-.132.196-.504.323-1.116z"/></g></g></g><g><path fill="none" stroke="#fff" stroke-miterlimit="20" stroke-width="1.1" d="M1 6.54a5.5 5.5 0 0 1 5.5-5.5h29a5.5 5.5 0 0 1 5.5 5.5v26.886a5.5 5.5 0 0 1-5.5 5.5h-29a5.5 5.5 0 0 1-5.5-5.5z"/></g></g></g></svg>