<svg xmlns="http://www.w3.org/2000/svg" width="42" height="39" viewBox="0 0 42 39"><g><g><g><path fill="none" stroke="#fff" stroke-miterlimit="20" stroke-width="1.1" d="M1 6.05A5.5 5.5 0 0 1 6.5.55h28.6a5.5 5.5 0 0 1 5.5 5.5v26.4a5.5 5.5 0 0 1-5.5 5.5H6.5a5.5 5.5 0 0 1-5.5-5.5z"/></g><g><path fill="#fff" d="M21.34 24.723a5.468 5.468 0 0 0 1.9-.547l5.23 9.05a15.875 15.875 0 0 1-7.13 1.955zm2.832-1.134a5.53 5.53 0 0 0 1.286-1.427l9.053 5.227a16.032 16.032 0 0 1-5.096 5.281zm1.773-2.416c.162-.434.27-.894.318-1.372h10.458a15.879 15.879 0 0 1-1.69 6.623zm.318-2.472a5.468 5.468 0 0 0-.617-2.037l9.045-5.226a15.875 15.875 0 0 1 2.03 7.263zm-1.231-2.952a5.53 5.53 0 0 0-1.201-1.082l5.23-9.058a16.033 16.033 0 0 1 5.066 4.889zm-2.174-1.597a5.466 5.466 0 0 0-1.517-.374V3.31c2.43.082 4.723.709 6.76 1.76zm-2.617-.374a5.466 5.466 0 0 0-1.517.374L13.48 5.071a15.866 15.866 0 0 1 6.76-1.761zm-2.49.889a5.53 5.53 0 0 0-1.202 1.082l-9.094-5.251a16.033 16.033 0 0 1 5.066-4.889zm-1.816 1.997a5.464 5.464 0 0 0-.617 2.037H4.85c.09-2.633.817-5.104 2.032-7.263zm-.617 3.137c.047.478.156.938.318 1.372l-9.095 5.251a15.867 15.867 0 0 1-1.691-6.623zm.806 2.361a5.53 5.53 0 0 0 1.286 1.427l-5.244 9.081a16.032 16.032 0 0 1-5.096-5.28zm2.217 2.014c.582.29 1.223.48 1.9.547v10.458a15.875 15.875 0 0 1-7.13-1.956z"/></g></g></g></svg>